<svg width="505" height="717" viewBox="0 0 505 717" fill="none" xmlns="http://www.w3.org/2000/svg">
<path d="M378.889 28.5494C416.976 66.6153 416.976 128.332 378.889 166.398C367.632 177.649 354.308 185.575 340.138 190.175C307.027 200.924 269.513 206.791 244.897 231.394L231.519 244.765C206.902 269.368 201.032 306.862 190.277 339.955C185.675 354.117 177.745 367.434 166.488 378.685C128.401 416.751 66.6511 416.751 28.5647 378.685C-9.52175 340.619 -9.52175 278.902 28.5647 240.837C39.8219 229.585 53.1464 221.66 67.3162 217.06C100.427 206.311 137.941 200.444 162.557 175.84L175.935 162.47C200.552 137.866 206.422 100.373 217.176 67.28C221.779 53.1179 229.709 39.8005 240.966 28.5494C279.053 -9.51647 340.803 -9.51647 378.889 28.5494Z" fill="#FC3F3F"/>
<path d="M476.299 338.321C514.385 376.387 514.385 438.104 476.299 476.17C465.041 487.421 451.717 495.347 437.547 499.947C404.436 510.696 366.923 516.563 342.306 541.166L328.928 554.536C304.311 579.14 298.442 616.634 287.687 649.727C283.084 663.889 275.154 677.206 263.897 688.457C225.811 726.523 164.06 726.523 125.974 688.457C87.8876 650.391 87.8876 588.674 125.974 550.608C137.231 539.357 150.556 531.432 164.726 526.831C197.836 516.082 235.35 510.216 259.967 485.612L273.344 472.242C297.961 447.638 303.831 410.145 314.586 377.052C319.188 362.89 327.118 349.572 338.375 338.321C376.462 300.255 438.212 300.255 476.299 338.321Z" fill="#FC3F3F"/>
</svg>
