<svg width="2320" height="600" viewBox="0 0 2320 600" fill="none" xmlns="http://www.w3.org/2000/svg">
<path d="M600 314.238C600 314.238 556.909 391.451 489.521 458.379C464.182 483.554 435.372 507.347 404.083 525L358.562 433.204L299.306 313.854L240.05 433.204L194.826 524.309C163.587 506.503 134.826 482.709 109.537 457.458C42.6446 390.683 0 314.238 0 314.238C0 314.238 42.7934 237.562 109.835 170.71L180.793 313.777L299.306 75L417.769 313.777L489.174 169.789C556.76 236.871 600 314.238 600 314.238Z" fill="#FC3F3F"/>
<path d="M804.293 453.552L720 164.448H811.228L854.975 345.004L902.456 164.448H973.945L1021.96 345.004L1065.71 164.448H1156.93L1072.64 453.552H987.816L938.2 285.356L889.119 453.552H804.293Z" fill="black"/>
<path d="M1249.84 460C1219.97 460 1195.43 453.014 1176.22 439.043C1157.01 425.071 1147.41 405.726 1147.41 381.007C1147.41 355.572 1155.59 335.868 1171.95 321.897C1188.31 307.925 1212.14 297.715 1243.44 291.267L1332.53 272.996C1332.53 256.159 1328.8 243.441 1321.33 234.843C1314.22 225.887 1303.9 221.409 1290.39 221.409C1276.87 221.409 1266.2 224.813 1258.38 231.619C1250.91 238.068 1246.11 247.382 1243.97 259.562L1152.21 256.338C1157.9 223.021 1172.66 198.302 1196.49 182.182C1220.32 166.061 1251.62 158 1290.39 158C1335.2 158 1368.63 168.21 1390.69 188.63C1413.09 209.05 1424.3 239.501 1424.3 279.982V371.335C1424.3 380.291 1425.72 386.202 1428.56 389.068C1431.76 391.934 1436.03 393.367 1441.37 393.367H1448.3V453.552C1445.46 454.626 1440.83 455.522 1434.43 456.238C1428.03 456.955 1421.81 457.313 1415.76 457.313C1404.73 457.313 1394.06 455.522 1383.75 451.94C1373.44 447.999 1364.9 441.192 1358.14 431.52C1351.38 421.489 1348.01 407.159 1348.01 388.53L1354.94 395.516C1351.38 408.413 1344.98 419.877 1335.74 429.907C1326.84 439.58 1315.28 447.103 1301.06 452.477C1286.83 457.492 1269.76 460 1249.84 460ZM1273.85 399.815C1285.23 399.815 1295.37 397.486 1304.26 392.829C1313.15 388.172 1320.09 381.365 1325.07 372.409C1330.04 363.453 1332.53 352.348 1332.53 339.093V327.27L1277.05 340.167C1266.02 342.675 1257.31 346.616 1250.91 351.989C1244.86 357.005 1241.84 363.811 1241.84 372.409C1241.84 381.007 1244.51 387.814 1249.84 392.829C1255.18 397.486 1263.18 399.815 1273.85 399.815Z" fill="black"/>
<path d="M1588.42 460C1557.47 460 1531.69 455.88 1511.06 447.641C1490.43 439.043 1474.6 427.4 1463.58 412.712C1452.91 398.024 1446.86 381.365 1445.44 362.737L1538.27 359.512C1540.4 372.409 1545.56 382.082 1553.74 388.53C1561.92 394.979 1573.66 398.203 1588.95 398.203C1601.4 398.203 1611 396.233 1617.76 392.292C1624.52 387.993 1627.9 381.724 1627.9 373.484C1627.9 367.752 1626.47 363.095 1623.63 359.512C1621.14 355.93 1615.98 352.706 1608.16 349.84C1600.69 346.974 1589.48 344.287 1574.55 341.779C1543.25 336.764 1518.71 330.674 1500.92 323.509C1483.14 315.986 1470.51 306.492 1463.05 295.028C1455.93 283.565 1452.38 269.235 1452.38 252.039C1452.38 223.738 1463.4 200.989 1485.45 183.794C1507.86 166.598 1541.65 158 1586.82 158C1614.91 158 1638.39 162.299 1657.24 170.897C1676.44 179.495 1691.2 191.496 1701.52 206.9C1712.19 221.947 1718.77 239.501 1721.26 259.562L1630.03 262.786C1628.96 253.83 1626.47 246.128 1622.56 239.68C1618.65 233.231 1613.67 228.395 1607.62 225.171C1601.58 221.588 1594.29 219.797 1585.75 219.797C1573.66 219.797 1564.05 222.484 1556.94 227.858C1550.18 232.873 1546.8 239.859 1546.8 248.815C1546.8 254.905 1548.23 260.1 1551.07 264.399C1554.27 268.339 1559.43 271.563 1566.54 274.071C1573.66 276.579 1583.26 278.728 1595.35 280.52C1626.3 284.46 1651.01 290.371 1669.51 298.253C1688 305.776 1701.34 315.628 1709.52 327.808C1718.06 339.63 1722.32 354.139 1722.32 371.335C1722.32 390.321 1716.81 406.442 1705.79 419.698C1695.12 432.953 1679.82 442.983 1659.91 449.79C1639.99 456.597 1616.16 460 1588.42 460Z" fill="black"/>
<path d="M1874.98 460C1844.04 460 1818.26 455.88 1797.63 447.641C1777 439.043 1761.17 427.4 1750.15 412.712C1739.48 398.024 1733.43 381.365 1732.01 362.737L1824.84 359.512C1826.97 372.409 1832.13 382.082 1840.31 388.53C1848.49 394.979 1860.22 398.203 1875.52 398.203C1887.97 398.203 1897.57 396.233 1904.33 392.292C1911.08 387.993 1914.46 381.724 1914.46 373.484C1914.46 367.752 1913.04 363.095 1910.19 359.512C1907.71 355.93 1902.55 352.706 1894.72 349.84C1887.25 346.974 1876.05 344.287 1861.11 341.779C1829.81 336.764 1805.27 330.674 1787.49 323.509C1769.71 315.986 1757.08 306.492 1749.61 295.028C1742.5 283.565 1738.94 269.235 1738.94 252.039C1738.94 223.738 1749.97 200.989 1772.02 183.794C1794.43 166.598 1828.21 158 1873.38 158C1901.48 158 1924.96 162.299 1943.81 170.897C1963.01 179.495 1977.77 191.496 1988.09 206.9C1998.76 221.947 2005.34 239.501 2007.82 259.562L1916.6 262.786C1915.53 253.83 1913.04 246.128 1909.13 239.68C1905.22 233.231 1900.24 228.395 1894.19 225.171C1888.14 221.588 1880.85 219.797 1872.32 219.797C1860.22 219.797 1850.62 222.484 1843.51 227.858C1836.75 232.873 1833.37 239.859 1833.37 248.815C1833.37 254.905 1834.79 260.1 1837.64 264.399C1840.84 268.339 1846 271.563 1853.11 274.071C1860.22 276.579 1869.83 278.728 1881.92 280.52C1912.86 284.46 1937.58 290.371 1956.08 298.253C1974.57 305.776 1987.91 315.628 1996.09 327.808C2004.62 339.63 2008.89 354.139 2008.89 371.335C2008.89 390.321 2003.38 406.442 1992.35 419.698C1981.68 432.953 1966.39 442.983 1946.47 449.79C1926.56 456.597 1902.73 460 1874.98 460Z" fill="black"/>
<path d="M2169.55 460C2139.32 460 2112.83 453.731 2090.06 441.192C2067.66 428.654 2050.05 411.1 2037.25 388.53C2024.8 365.961 2018.57 339.451 2018.57 309C2018.57 278.549 2024.8 252.039 2037.25 229.47C2050.05 206.9 2067.66 189.346 2090.06 176.808C2112.83 164.269 2139.32 158 2169.55 158C2199.79 158 2226.1 164.269 2248.51 176.808C2270.92 189.346 2288.35 206.9 2300.79 229.47C2313.6 252.039 2320 278.549 2320 309C2320 339.451 2313.6 365.961 2300.79 388.53C2288.35 411.1 2270.92 428.654 2248.51 441.192C2226.1 453.731 2199.79 460 2169.55 460ZM2169.55 391.754C2187.34 391.754 2201.03 384.59 2210.63 370.26C2220.59 355.93 2225.57 335.51 2225.57 309C2225.57 282.848 2220.59 262.607 2210.63 248.278C2201.03 233.59 2187.34 226.246 2169.55 226.246C2151.41 226.246 2137.37 233.59 2127.41 248.278C2117.8 262.607 2113 282.848 2113 309C2113 335.51 2117.8 355.93 2127.41 370.26C2137.37 384.59 2151.41 391.754 2169.55 391.754Z" fill="black"/>
</svg>
